<svg id="Layer_1" data-name="Layer 1" xmlns="http://www.w3.org/2000/svg" viewBox="0 0 1158.4 331.35"><defs><style>.cls-1{fill:#002d5d;}</style></defs><title>AugustaSportswearBrands-twolines</title><path class="cls-1" d="M317.57,129.31c0,13.16,0,53.2-44.45,53.2-32.86,0-48.83-17.4-48.83-53.2V15.71H201v113.6c0,49,25.63,76,72.16,76,31,0,68-13.19,68-76V15.71H317.57Z"/><path class="cls-1" d="M449.16,35.17c25.35,0,41.22,9.22,51.44,29.9l4.27,8.64,18.88-14.94L520.62,53c-15.05-27.72-37.75-40.63-71.46-40.63-48.52,0-75.24,27.54-75.24,77.55v37.33c0,51.08,26.28,78.07,76,78.07,31.21,0,53.57-6.66,68.36-20.35l2.51-2.32V102.46h-73v22.29h49.67v46.81c-8.81,5.72-21.81,10.95-47,10.95-36.44,0-52.69-17-52.69-55V89.92C397.75,53.08,414.57,35.17,449.16,35.17Z"/><path class="cls-1" d="M668.36,129.31c0,13.16,0,53.2-44.45,53.2-32.86,0-48.83-17.4-48.83-53.2V15.71H551.76v113.6c0,49,25.62,76,72.15,76,31,0,68-13.19,68-76V15.71H668.36Z"/><path class="cls-1" d="M789.53,35.17c22.45,0,34.81,6.94,47.21,26.5l5.09,8,16.93-16.12-3.45-5.41c-16-25.09-35.64-35.79-65.78-35.79-41,0-65.46,17.64-65.46,47.18,0,26.24,15.23,43.43,46.72,52.59l30.74,8.19c26.5,7.61,31.68,17.45,31.68,31.89,0,20.81-21.71,30.29-41.88,30.29-29.54,0-41.7-10.86-52.74-29.61l-4.86-8.28-17.46,15.87,3.22,5.47c16.68,28.32,36.89,39.36,72.1,39.36,16.61,0,32.1-4.31,43.6-12.13,14.13-9.6,21.6-23.77,21.6-41,0-37.33-27.42-48.78-48-54.14l-31.48-8.19c-26.09-7.46-29.61-19.52-29.61-30.34C747.65,39.4,770.42,35.17,789.53,35.17Z"/><polygon class="cls-1" points="1013.11 15.71 873.7 15.71 873.7 38.52 931.61 38.52 931.61 201.97 955.2 201.97 955.2 38.52 1013.11 38.52 1013.11 15.71"/><path class="cls-1" d="M1068.47,14.17,1000.25,202h24.84l15.7-43.24h76.84l15.7,43.24h24.57L1090,14.17Zm-19.45,122,30.3-83.54,30.1,83.54Z"/><path class="cls-1" d="M102.84,4.08H88.69L24.93,144.2c6.86-7.58,24.78-21.06,36.71-23.88l34-76.92,38,82.13C53.71,125,12.47,187.44,1.85,203.25c-1.35,2-1.44,2.45-1.37,2.43a8.57,8.57,0,0,0,2.6-2.11C49.19,160.78,116,158.3,149.74,160.26l20.07,43.31h25.28Z"/><path class="cls-1" d="M795.1,285.3c2.71-2.91,5.57-7.8,5.57-15.44,0-12.59-7.67-19.25-22.18-19.25H748.73v75h30.36c20.42,0,24.71-12.28,24.71-22.59C803.8,295.3,800.65,288.92,795.1,285.3Zm-15.5-3.67H759.85v-20.1h18.44c9.33,0,11.16,3.2,11.16,8.74C789.45,277.38,785.77,281.63,779.6,281.63Zm-19.75,10.51h23.29c6,0,9.54,4,9.54,10.66,0,8.39-4.12,12-13.79,12h-19Z"/><path class="cls-1" d="M871.34,274.81c0-16.28-8-24.2-24.5-24.2H818v75h11.12V301h16.82c.63,0,1.26,0,1.88,0l13.76,24.6h12.58L859,298.38C864.82,295.53,871.34,289.14,871.34,274.81Zm-11.12.1c0,10.37-4.67,15.41-14.29,15.41H829.11V261.53h17.63C856.57,261.53,860.22,265.16,860.22,274.91Z"/><path class="cls-1" d="M910.19,250l-27.45,75.58h11.73l6.16-17h28.86l6.16,17h11.62L919.93,250Zm15.4,47.89H904.54l10.56-29.12Z"/><polygon class="cls-1" points="1001.2 302.67 966.96 250.61 957.68 250.61 957.68 325.59 968.7 325.59 968.7 273.41 1002.96 325.59 1012.14 325.59 1012.14 250.61 1001.12 250.61 1001.2 302.67"/><path class="cls-1" d="M1057,250.61h-26.33v75H1057c21.42,0,32.28-10.18,32.28-30.27V280.67C1089.32,261.29,1077.86,250.61,1057,250.61Zm21.06,30.16v14.55c0,13.57-6.3,19.35-21.06,19.35h-15.21V261.53H1057C1071.41,261.53,1078.1,267.64,1078.1,280.77Z"/><path class="cls-1" d="M1137.81,283l-12.34-3.21c-9.62-2.75-10.94-6.91-10.94-11,0-7.14,8.43-8.64,15.5-8.64,8.55,0,13,2.52,17.75,10l2.6,4.11,8-7.64-1.76-2.77c-6.46-10.15-14.42-14.48-26.61-14.48-16.67,0-26.62,7.27-26.62,19.45,0,10.77,6.22,17.82,19,21.54l12,3.21c9.89,2.84,11.76,6.28,11.76,11.63,0,7.53-8,10.95-15.51,10.95-11.21,0-15.64-3.92-19.9-11.16l-2.49-4.24-8.26,7.51,1.65,2.8c6.74,11.45,14.9,15.91,29.1,15.91a31.65,31.65,0,0,0,17.64-4.92,19.58,19.58,0,0,0,8.89-16.85C1157.37,289.83,1146.21,285.15,1137.81,283Z"/><path class="cls-1" d="M30.67,259.53c8.58,0,13.08,2.53,17.84,10L51.3,274l8.49-8.09-1.89-3c-6.61-10.38-14.76-14.81-27.23-14.81-17.08,0-27.28,7.47-27.28,20,0,11.06,6.37,18.28,19.5,22.1l12.24,3.27C45,296.29,46.92,299.71,46.92,305c0,7.5-8.05,10.91-15.53,10.91-11.28,0-15.74-3.94-20-11.23l-2.67-4.54L0,308.11l1.76,3c8,13.51,17.65,16.28,29.77,16.28,18.77,0,27.18-11.23,27.18-22.36,0-15.69-11.44-20.49-20-22.72L26.1,279.05c-9.63-2.75-11-6.9-11-11C15.14,261,23.58,259.53,30.67,259.53Z"/><path class="cls-1" d="M98.78,249.42H71.5v76.63H83.25V301.62H98.78c16.73,0,25.94-9.72,25.94-27.38C124.72,257.54,116.23,249.42,98.78,249.42Zm14.09,24.92c0,10.66-4.65,15.84-14.2,15.84H83.25V261H98.67C109.28,261,112.87,264.34,112.87,274.34Z"/><path class="cls-1" d="M166.6,248.09c-20.77,0-32.21,11.4-32.21,32.1v14.89c0,20.83,11.44,32.31,32.21,32.31,21.1,0,32.72-11.48,32.72-32.31V280.19C199.32,259.49,187.7,248.09,166.6,248.09Zm20.76,32.1v14.89c0,14.23-6.59,20.86-20.76,20.86-13.89,0-20.35-6.63-20.35-20.86V280.19c0-14.09,6.46-20.66,20.35-20.66C180.77,259.53,187.36,266.1,187.36,280.19Z"/><path class="cls-1" d="M266.28,274.24c0-16.47-8.45-24.82-25.12-24.82H211.62v76.63h11.75V301.11h16.87c.6,0,1.19,0,1.78-.05l14,25h13.3l-15.49-27.77C259.76,295.3,266.28,288.72,266.28,274.24Zm-11.75.1c0,10.38-4.67,15.43-14.29,15.43H223.37V261h17.69C251,261,254.53,264.47,254.53,274.34Z"/><polygon class="cls-1" points="333.88 249.42 275.93 249.42 275.93 260.86 299.03 260.86 299.03 326.05 310.78 326.05 310.78 260.86 333.88 260.86 333.88 249.42"/><path class="cls-1" d="M371.63,259.53c8.58,0,13.08,2.53,17.84,10l2.79,4.41,8.49-8.09-1.9-3c-6.6-10.38-14.75-14.81-27.22-14.81-17.08,0-27.28,7.47-27.28,20,0,11.06,6.37,18.28,19.5,22.1l12.24,3.27c9.91,2.84,11.79,6.26,11.79,11.58,0,7.5-8.05,10.91-15.53,10.91-11.28,0-15.74-3.94-20-11.23l-2.67-4.54-8.73,7.94,1.76,3c8,13.51,17.65,16.28,29.77,16.28,18.77,0,27.18-11.23,27.18-22.36,0-15.69-11.44-20.49-20-22.72l-12.53-3.26c-9.63-2.75-11-6.9-11-11C356.1,261,364.54,259.53,371.63,259.53Z"/><polygon class="cls-1" points="473.11 302.32 458.32 250.39 458.07 249.52 448.14 249.52 432.74 302.11 418.6 249.42 406.32 249.42 427.34 326.36 437.72 326.36 453.03 274.27 467.82 326.36 478.18 326.36 500.36 249.42 488.15 249.42 473.11 302.32"/><polygon class="cls-1" points="524.27 292.48 558.87 292.48 558.87 281.25 524.27 281.25 524.27 260.97 565.23 260.97 565.23 249.42 512.52 249.42 512.52 326.05 565.33 326.05 565.33 314.61 524.27 314.61 524.27 292.48"/><path class="cls-1" d="M603.58,248.8l-28.06,77.25h12.41l6.26-17.24h29l6.26,17.24h12.29L613.8,248.8Zm15.49,48.67H598.32l10.41-28.7Z"/><path class="cls-1" d="M694.14,298.28c6-3,12.48-9.56,12.48-24,0-16.47-8.46-24.82-25.13-24.82H652v76.63H663.7V301.11h16.87c.6,0,1.2,0,1.79-.05l14,25h13.3Zm.73-23.94c0,10.38-4.68,15.43-14.3,15.43H663.7V261h17.69C691.34,261,694.87,264.47,694.87,274.34Z"/></svg>