<svg xmlns="http://www.w3.org/2000/svg" width="177" height="101" viewBox="0 0 177 101">
    <g fill="none" fill-rule="evenodd">
        <path fill="#B7152C" d="M87.196 6l-8.224 7.777 36.712 34.654c.947.911.653 1.985-.783 1.985h-12.433c-1.501 0-2.317.098-3.524-1.009L75.579 27.346c-3.329-3.352-7.604-3.254-10.965-.033l-1.273 1.204-1.272 1.204-1.208 1.204-1.273 1.204-1.272 1.204-1.273 1.204-1.273 1.204-1.272 1.204-1.273 1.204-1.273 1.204-1.272 1.204-1.273 1.204-1.273 1.204-2.512 2.375-1.273 1.204-1.273 1.204-1.272 1.204-1.273 1.204-1.273 1.204-1.272 1.204-2.513 2.375-1.273 1.204-1.272 1.204-1.273 1.204-1.273 1.204L28 62h16.48l24.017-22.712c.947-.911 1.828-.814 2.709 0l20.167 19.035C94.767 61.512 97.214 62 101.75 62H146L87.196 6z"/>
        <path fill="#2D2926" d="M54.603 33.947l-1.267 1.207-1.266 1.208-1.267 1.208-1.267 1.207-1.266 1.208-1.202 1.143-2.5 2.382-1.267 1.208-1.267 1.208-1.267 1.208-1.266 1.207-1.267 1.208-1.267 1.208-2.5 2.382-1.267 1.208-1.267 1.208-1.266 1.208L29.4 57.97l-6.106 5.81h22.345l24.424-23.305 20.006 19.062.325.327.325.293.325.294.324.294.325.26.325.262.325.229.324.228.358.196.357.196.357.196.357.163.358.163.357.163.357.13.358.131.357.098.357.098.357.098.358.065.357.066.39.065.39.065.39.033.389.032.39.033.39.033.389.032h50.861L87.244 2.84 76.07 13.48l36.473 34.73h-11.627l-.065-.032-.065-.033-.065-.032-.065-.033-.097-.065-.13-.098-.163-.13-23.222-22.099-.324-.326-.39-.326-.39-.327-.39-.294-.422-.26-.422-.262-.422-.228-.422-.196-.455-.196-.455-.163-.455-.13-.454-.099-.455-.098-.455-.065-.454-.033h-.91l-.454.033-.455.065-.455.098-.454.098-.455.13-.455.164-.455.196-.422.196-.422.228-.422.261-.422.261-.39.294-.39.294-.39.326-.357.327-1.267 1.208-1.266 1.207-1.267 1.208-1.267 1.208-1.266 1.207-1.267 1.208-1.169 1.045zM87.243 0l-14.16 13.48 34.33 32.674h-5.749l-23.125-22-.357-.359-.455-.391-.454-.392-.487-.36-.488-.326-.487-.293-.52-.294-.52-.261-.551-.229-.552-.196-.552-.163-.553-.13-.584-.098-.585-.066-.584-.032h-.585l-.585.032-.584.033-.585.065-.552.098-.552.13-.552.164-.552.196-.52.228-.52.262-.52.26-.486.294-.488.327-.487.326-.455.36-.454.391-.39.359-1.267 1.208-1.266 1.207-1.267 1.208-1.267 1.208-1.266 1.208-1.267 1.207-1.267 1.208-1.266 1.208-1.267 1.207-1.266 1.208-1.267 1.208-1.267 1.208-1.266 1.207-2.501 2.383-1.267 1.208-1.267 1.208-1.266 1.207-1.267 1.208-1.266 1.208-1.267 1.207-2.501 2.383-1.267 1.208-1.266 1.208-1.267 1.207-1.267 1.208L18 66h28.321l23.612-22.522 18.61 17.724.357.326.357.327.357.326.39.294.39.294.39.293.39.261.39.262.389.228.39.229.39.228.422.196.422.196.422.163.422.163.422.13.423.131.422.13.422.099.422.098.423.065.422.065.422.066.422.032.422.033.423.032.422.033.422.033H156L87.244 0z"/>
        <path fill="#1F2122" d="M29.685 78.426l.49-2.807.488-2.806c.294-1.58-1.206-2.807-3.327-2.807-6.915.032-13.864.097-20.78.13-2.217.096-3.457.903-3.848 2.903C1.794 78.103.913 83.2 0 88.265l7.307-.064c.261-1.42.979-5.517 1.24-6.936 5.676-.033 11.286-.065 16.897-.065 2.936-.032 4.078-1.839 4.24-2.774zm-6.557-4.194l-.49 2.71-13.308.097.489-2.71a915.25 915.25 0 0 1 13.31-.097zm35.98 13.904c.425-2.484.881-4.936 1.306-7.42.424-2.484.88-4.935 1.304-7.42.196-2.354-1.304-3.387-4.208-3.29-6.622 0-13.211.032-19.8.065-2.219.097-3.458.903-3.85 2.903-.456 2.549-.913 5.065-1.37 7.613-.456 2.549-.913 5.065-1.37 7.614h7.307c.261-1.42.979-5.55 1.24-6.969 4.404 0 8.873-.032 13.309-.032-.424 2.323-.815 4.613-1.24 6.936h7.373zm-4.86-13.872l-.49 2.71c-4.435 0-8.872.032-13.308.032l.489-2.71c4.436 0 8.873 0 13.31-.032zm96.003 23.13h1.044c1.24 0 2.022-.516 2.153-1.419.065-.452.163-.903.228-1.387.065-.452.163-.903.261-1.387.228-1.355-.848-1.581-1.729-1.581-3.555 0-7.078-.032-10.634-.032-1.142.032-1.762.451-1.99 1.484-.13.645-.228 1.322-.359 1.968-.13.645-.228 1.322-.359 1.967l-.358 1.968-.36 1.968h3.752l.62-3.549h3.882c.685 1.194 1.37 2.323 1.924 3.581h4.013c-.653-1.226-1.37-2.387-2.088-3.58zm-.196-3.613c-.098.452-.163.936-.26 1.388-2.284 0-4.568 0-6.851-.033.098-.451.163-.935.26-1.387 2.284.032 4.568.032 6.851.032zm-81.65 7.162h11.711c1.795 0 2.838-.839 3.1-2.226.065-.42.163-.839.228-1.226.065-.42.163-.839.228-1.226.065-.419.163-.838.228-1.225.066-.42.164-.84.229-1.226.26-1.388-.75-2.259-2.316-2.259H70.102c-.13.775-.294 1.581-.424 2.355-.13.775-.294 1.581-.424 2.355-.13.775-.294 1.581-.424 2.355-.13.742-.294 1.549-.424 2.323zm4.209-2.226c.065-.42.163-.839.228-1.226.065-.42.163-.839.228-1.226.066-.419.164-.838.229-1.225.065-.42.163-.84.228-1.226h6.818c-.065.419-.163.838-.229 1.226-.065.419-.163.838-.228 1.225-.065.42-.163.84-.228 1.226-.065.42-.163.839-.229 1.226-2.283-.032-4.534 0-6.817 0zm62.697 2.226l.326-1.903c.098-.646.228-1.258.326-1.904.098-.645.228-1.258.326-1.903s.229-1.258.327-1.903c.13-1.226-.653-1.742-2.153-1.71-3.393 0-6.786 0-10.178-.032-1.142.032-1.762.451-1.99 1.484-.13.645-.228 1.322-.359 1.968-.13.645-.228 1.322-.359 1.967l-.358 1.968-.36 1.968h3.752c.13-.742.261-1.516.392-2.258h6.817l-.391 2.258h3.882zm-2.48-7.162c-.097.452-.39 2.259-.489 2.71h-6.817c.097-.451.391-2.258.489-2.71h6.818zm-67.263 7.13l.326-1.904c.098-.645.228-1.258.326-1.903s.228-1.258.326-1.903.229-1.258.326-1.903c.098-1.226-.652-1.743-2.153-1.71H54.542c-1.142.032-1.794.451-1.99 1.484-.13.645-.228 1.322-.359 1.968-.13.645-.228 1.29-.359 1.967l-.359 1.968-.358 1.968h3.751c.13-.742.261-1.516.391-2.258h6.85l-.423 2.29 3.882-.064zm-2.48-7.162c-.097.452-.391 2.258-.489 2.71h-6.85c.098-.452.391-2.258.49-2.71h6.85zm41.07-23.646h-3.85l-3.49.032c-.456 2.581-1.402 7.807-1.86 10.356-.456 2.58-.912 5.129-1.37 7.71h7.34c.457-2.549 1.436-7.969 1.86-10.517.457-2.516.913-5.033 1.37-7.581zm41.69 0h-3.85l-3.458-.032-1.827 10.42-1.37 7.71h7.307l1.86-10.485 1.337-7.613zm-41.69 18.13h3.295l4.045.032c.163-.903 1.076-6.032 1.24-6.936l20.55.033.783-4.259c-5.61 0-14.973-.032-20.584-.032l.49-2.71 20.453.032.718-4.225c-6.949-.033-17.452-.033-24.4-.033-2.219.065-3.458.871-3.85 2.871-.359 2.033-.718 4.033-1.076 6.065l-1.077 6.065-.587 3.097zm-13.081-4.258H70.396c.293-1.613.587-3.226.848-4.807.293-1.613.587-3.226.848-4.839h20.616l.718-4.226H68.862c-2.185.065-3.457.871-3.849 2.903-.391 2.13-.75 4.226-1.142 6.355-.391 2.097-.75 4.226-1.141 6.356-.196 1.258 1.109 2.516 2.805 2.548l24.792-.032.75-4.258zm83.542.064c-6.883-.032-13.766-.097-20.65-.129.294-1.613.588-3.226.849-4.807.293-1.613.587-3.226.848-4.839l20.584.13.75-4.259c-6.883-.032-17.648-.097-24.53-.129-2.219.065-3.459.871-3.85 2.871-.391 2.13-.75 4.226-1.142 6.355-.391 2.097-.75 4.226-1.141 6.323-.196 1.258 1.141 2.549 2.805 2.549l24.661.097.816-4.162zM31.153 100.911l1.663-9.291h-3.75l-.653 3.58-6.818.033.62-3.613-3.72.065-1.663 9.29h3.752l.652-3.58 6.818-.033-.62 3.516 3.719.033zm71.928-9.42h-3.75c-.327 1.807-.653 3.58-.947 5.387-1.174-1.064-2.349-2.161-3.523-3.226-1.566 1.13-3.132 2.226-4.697 3.355l.978-5.516c-1.24 0-2.512 0-3.751.032-.555 3.097-1.142 6.194-1.631 9.29 1.696.162 3.197.259 4.828-1 1.207-.838 2.446-1.709 3.686-2.548a50.822 50.822 0 0 0 2.675 2.613c1.24 1.29 2.675 1.162 4.534 1.065.49-3.161 1.044-6.323 1.598-9.452zm-67.427 9.452l12.625-.032.391-2.162H38.134c.097-.451.163-.935.26-1.387l10.57-.032.391-2.161H38.753c.098-.452.164-.936.261-1.388h10.537l.457-2.161H37.35c-1.142.032-1.794.452-1.99 1.484l-.294 1.548-.293 1.549-.294 1.548-.293 1.549c-.131 1.258.065 1.645 1.467 1.645zm69.744 0h12.624l.391-2.194h-10.536c.098-.451.163-.935.26-1.387h10.57l.391-2.193H108.53c.098-.452.163-.936.261-1.388h10.537l.456-2.193h-12.657c-1.141.032-1.761.451-1.99 1.484l-.293 1.548-.294 1.549-.293 1.548-.294 1.548c-.163 1.29.065 1.678 1.436 1.678z"/>
    </g>
</svg>
